<?xml version="1.0" encoding="UTF-8" standalone="no"?>
<svg
   viewBox="0 0 1408 768"
   width="1408"
   height="768"
   version="1.1"
   id="svg22"
   xmlns="http://www.w3.org/2000/svg"
   xmlns:svg="http://www.w3.org/2000/svg">
  <defs
     id="defs22" />
  <path
     d="m 834,188 c 6.8797,-8.63729 15.30087,-16.02971 23,-24 9.71679,-6.13327 18.69219,-17.67916 31.46764,-15.88507 11.36061,5.7594 4.34377,21.12997 4.53236,31.18214 -2.76373,10.70162 -4.47626,20.93759 -6.94409,31.69211 -2.99891,11.07708 -5.96159,22.26033 -10.93847,32.77594 -4.02801,11.82238 -17.27727,19.8432 -17.02429,32.60897 4.11335,10.75576 1.93379,23.18023 -3.85021,32.95497 -6.08103,10.10316 -13.70759,18.62908 -22.98818,25.95439 -4.55832,4.02132 -9.84768,6.93679 -15.25471,9.71655"
     fill="none"
     stroke="#000000"
     stroke-width="2"
     stroke-linecap="round"
     stroke-linejoin="round"
     id="path1" />
  <path
     d="m 594,238 c -7.28392,-7.58357 -13.28964,-16.26742 -21.26721,-23.20092 -7.24059,-5.93367 -13.80213,-12.70038 -21.16989,-18.52372 -7.60221,-6.06484 -15.28098,-12.11404 -23.83942,-16.7137 -5.9136,-3.61026 -12.2197,-7.47823 -18.96145,-9.58274 -6.58183,-3.00636 -13.38673,-5.13485 -20.27689,-6.88145 -7.15645,-1.90696 -15.72442,-2.04509 -21.58843,3.00582 -4.92144,5.82505 -3.04841,14.64191 -0.96864,21.21121 3.30323,7.99867 7.83546,15.37639 10.48025,23.74291 4.91547,7.84544 7.36682,16.77036 11.56067,24.94745 5.07269,9.79994 9.50434,19.8896 15.96139,28.85589 4.575,7.75504 11.64401,13.57094 17.17162,20.64925 3.20112,8.26843 -8.45135,14.42967 -4.42472,22.7703 1.8068,6.06302 3.41976,12.78782 8.63374,17.03072 3.89633,3.89633 7.79265,7.79265 11.68898,11.68898 6.76695,4.30667 13.25453,8.69027 20.23612,12.52982 6.88808,2.11451 13.23202,5.67306 20.32007,7.27903 8.02094,2.77235 16.76579,3.49338 25.0904,5.38568 6.54942,0.47288 13.3135,0.25462 19.35341,2.80547"
     fill="none"
     stroke="#000000"
     stroke-width="2"
     stroke-linecap="round"
     stroke-linejoin="round"
     id="path2" />
  <path
     d="m 915,283 c -1.41574,-3.83613 -6.26035,-3.43835 -9.53931,-2.88201 -2.99425,0.83382 -6.77289,-1.08037 -6.18798,-4.55375 0.23752,-3.89399 3.30363,-6.64889 5.46746,-9.58178 2.58564,-4.68977 0.48061,-10.16625 -1.52525,-14.64554 -1.35694,-2.52315 -1.44361,-6.16158 1.19158,-7.88002 2.49625,-1.75469 5.91389,-1.25494 8.35376,0.33429 4.89772,2.08646 11.71811,1.0373 14.37322,-4.00838 2.18882,-3.44792 7.57014,-5.49999 10.94991,-2.56341 2.69804,2.96943 1.57428,7.24526 1.92034,10.86976 0.0386,3.81716 1.4961,8.5276 5.65203,9.57777 3.42128,1.12954 7.42904,3.00696 8.36696,6.82077 0.70342,3.64356 -2.76623,6.14849 -5.95977,6.70671 -3.48571,0.81996 -8.05655,1.15111 -9.65492,4.94988 -2.00173,4.62928 -0.88534,10.71894 -5.18969,14.21259 -3.27554,2.45055 -6.97693,-0.59745 -9.08515,-3.11376 -2.3623,-2.45406 -5.77932,-2.86668 -8.7779,-4.08307 z"
     fill="none"
     stroke="#000000"
     stroke-width="2"
     stroke-linecap="round"
     stroke-linejoin="round"
     id="path3" />
  <path
     d="m 791,320 c 12.31296,-8.10955 21.71847,-20.87061 26.64186,-34.87391 4.07791,-11.2068 5.787,-23.29495 5.35814,-35.32954 -0.24091,-5.89313 0.85631,-12.00743 -1.4346,-17.49983 -1.72587,-17.3794 -8.42351,-34.50747 -19.98418,-47.7155 -8.24448,-8.30666 -16.0561,-17.25043 -27.29599,-21.49736 -13.42229,-6.38452 -27.69883,-9.92745 -42.55596,-10.03243 -13.77981,-0.23109 -27.54635,0.57281 -40.25976,6.33119 -17.44962,3.61622 -30.1836,16.66724 -42.46951,28.61738 -9.10125,12.00134 -15.9707,25.00969 -19.99804,39.6631 -2.17149,14.30498 -3.7428,29.58751 1.41858,43.75059 5.36497,16.9758 16.99563,31.73181 31.7903,41.73659 5.35315,5.09308 12.41121,7.39968 18.78916,10.84972"
     fill="none"
     stroke="#000000"
     stroke-width="2"
     stroke-linecap="round"
     stroke-linejoin="round"
     id="path5" />
  <path
     d="m 894,332 c -3.66667,0 -7.33333,0 -11,0 -5.99016,3.0133 -13.44332,4.76635 -16.83822,11.17693 -3.05447,4.98522 -6.72844,9.69946 -11.57117,13.05344 -5.06393,4.63903 -12.22904,5.94117 -17.37593,10.46016 -6.94328,2.12959 -13.31139,6.75097 -20.84985,6.39293 -6.30896,1.00755 -10.70979,-4.49834 -15.51278,-7.53322 -4.80132,-3.26078 -7.73223,-9.90139 -14.03993,-10.51883 -0.693,-0.11838 -1.41055,-0.41761 -1.81212,-1.03141"
     fill="none"
     stroke="#000000"
     stroke-width="2"
     stroke-linecap="round"
     stroke-linejoin="round"
     id="path6" />
  <path
     d="m 870,390 c 1.90428,-6.45599 4.98175,-12.90598 7.03464,-18.93255 4.64032,-4.79002 5.30892,-11.43364 7.11975,-17.49902 1.0493,-7.18933 10.79003,-9.18771 9.05856,-17.13884 0.0685,-4.71159 5.73501,-5.54989 4.46681,-11.0115 2.25149,-8.09569 7.25261,-15.13199 10.36861,-22.91181 2.05573,-6.19894 4.86893,-12.15469 6.41731,-18.42504 l 0.53432,-1.08124"
     fill="none"
     stroke="#000000"
     stroke-width="2"
     stroke-linecap="round"
     stroke-linejoin="round"
     id="path8" />
  <path
     d="m 897,332 c 3.74575,1.45743 7.54914,4.61358 8.12873,8.75529 -2.20272,4.02136 -4.89568,7.61914 -5.30057,12.45546 -1.18891,4.87985 -3.17496,9.70062 -6.65591,13.38416 -2.95132,1.82651 -9.46851,2.39238 -12.1722,0.40509"
     fill="none"
     stroke="#000000"
     stroke-width="2"
     stroke-linecap="round"
     stroke-linejoin="round"
     id="path9" />
  <path
     d="m 766,348 c 8.86931,14.09988 9.62019,31.176 8.84591,47.36946 0.50859,10.08262 -9.6418,23.49882 1.4183,30.56259 14.62624,9.15653 27.2059,21.35013 37.98154,34.77931 8.99559,10.52556 15.85064,22.71098 22.33157,34.86224 3.42776,11.20318 11.4911,22.92009 7.26795,34.99688 -8.37607,10.21166 -21.83923,13.50511 -33.57345,18.42952 -10.32396,2.55731 -20.74595,5.03133 -31.12616,6.55847 -9.72626,1.51236 -19.65669,2.89251 -29.71778,2.44153 -15.79984,-0.50989 -31.84654,1.44504 -47.34058,-2 -12.3698,-2.63776 -25.18301,-3.86004 -37.13393,-8.20268 -10.6627,0.30625 -18.54426,-5.59941 -27.81238,-9.67624 -17.59018,-6.81744 -35.57748,-15.75209 -47.19552,-31.08032 -5.65173,-10.37458 0.88202,-21.76041 7.53964,-29.79293 8.69128,-10.6427 18.5155,-20.18326 28.69793,-29.16739 14.2217,-11.48431 30.15159,-21.32531 47.56963,-27.44367 11.75111,-0.65229 15.09936,-13.35191 16.3068,-22.92721 3.19757,-11.20069 2.69121,-23.6152 -1.41226,-34.40614 -3.3874,-10.05015 -16.70505,-17.42813 -25.18779,-8.73884 -14.15146,11.32004 -18.75337,31.66483 -35.79527,39.73853 -11.97444,8.0616 -24.55788,17.09558 -39.30503,18.69689 -10.96075,-2.30934 -21.98958,-4.13315 -32.68631,-7.3582 -10.61489,2.16842 -3.17106,24.11767 8.34446,18.44768 10.59001,-0.60862 17.17131,8.10727 8.22248,16.1488 1.57799,12.48512 16.39769,-3.82781 22.94363,-5.12576 13.71553,-9.16869 32.11689,-7.57468 45.97779,-17.2477 11.48261,-6.11881 21.94858,-14.55914 29.83883,-24.86482"
     fill="none"
     stroke="#000000"
     stroke-width="2"
     stroke-linecap="round"
     stroke-linejoin="round"
     id="path10" />
  <path
     d="m 876,372 c -2.85431,-2.99891 -7.64235,-2.5596 -10.71415,-0.14021 -4.6111,3.1171 -7.46616,8.06072 -11.7471,11.55532 -9.30936,8.71814 -20.48621,17.03635 -33.70718,17.70749 -6.60933,0.55814 -13.31661,-0.20409 -19.54743,-2.53499 -3.78642,-1.47354 -7.88251,-2.23777 -11.28414,-4.5876"
     fill="none"
     stroke="#000000"
     stroke-width="2"
     stroke-linecap="round"
     stroke-linejoin="round"
     id="path14" />
  <path
     d="m 651,546 c -2.80653,7.52936 -10.71748,10.6435 -16,15.8125 -6.61186,5.31351 -11.57741,14.26423 -21.03144,13.2034 -7.83546,-1.72018 -15.62474,2.75265 -18.17029,10.36198 -2.20531,8.27573 -8.68595,13.8573 -13.18091,20.85042 -4.12796,7.06965 -3.53722,16.21793 1.61529,22.88688 4.64141,9.56747 19.14614,8.45209 19.3879,-3.03142 4.23516,-6.47476 8.75273,-12.51876 14.16952,-18.11827 5.39485,-7.73087 14.28033,-11.83604 22.67213,-14.94356 6.63647,-2.89016 14.19016,-4.97653 20.59494,-7.8636 8.00701,-3.47859 17.58297,-1.44195 24.12921,-7.5956 7.43403,-3.05778 16.20847,-5.55457 20.71563,-12.70135 -0.24908,-2.67829 0.81521,-4.63531 2.09802,-6.86138"
     fill="none"
     stroke="#000000"
     stroke-width="2"
     stroke-linecap="round"
     stroke-linejoin="round"
     id="path18" />
  <path
     d="m 741,558 c -0.49653,5.10377 -0.28217,10.58369 -4.18657,14.51647 -3.98132,4.19728 -7.10529,9.06191 -11.32843,13.00675 -12.8396,12.81433 -25.65288,25.65497 -38.485,38.47678 -2.97701,5.37383 -6.79863,10.25444 -9.07824,16.00229 -2.08903,5.60417 -4.94014,10.83441 -5.98159,16.66251 -2.47035,4.68353 -2.88674,11.1173 -8.68069,13.12019 -5.23456,2.31063 -12.28803,5.87839 -17.03029,0.64786 -2.35678,-4.87986 -3.16374,-10.9718 -1.53033,-16.28444 -0.30715,-5.18919 3.48334,-9.36851 4.95437,-14.17326 2.90187,-6.35773 0.26349,-13.37723 1.67898,-19.92072 1.16013,-7.45136 9.04935,-7.96563 14.72329,-9.86558 6.58612,-3.02067 6.67964,-11.36845 10.06021,-16.97731 0.57074,-3.78005 1.52064,-7.46417 1.8843,-11.21154"
     fill="none"
     stroke="#000000"
     stroke-width="2"
     stroke-linecap="round"
     stroke-linejoin="round"
     id="path21" />
  <path
     d="m 720,66 c 5.69868,-1.09749 10.03147,2.511227 13.48858,6.488586 4.57849,5.07538 8.61117,10.840775 11.1075,17.422665 2.65508,12.215679 14.72394,6.474228 21.54531,2.35379 9.07401,-4.618119 14.44491,7.310593 15.89748,14.451089 -0.19906,5.72019 2.1378,10.78006 1.96113,16.39429 0,3.62986 0,7.25972 0,10.88958 -5.49553,6.61885 -14.42267,-0.54838 -21.25409,-1.4104 -5.90424,-1.28353 -11.05343,-3.33393 -16.9429,-3.5896 -3.601,0 -7.20201,0 -10.80301,0 -3.47922,-2.10765 -8.22701,-0.53656 -12.26187,-1 -5.03764,-0.0968 -9.42883,1.14701 -14.46495,1.56821 -7.80505,1.26639 -15.78043,2.93345 -23.4042,5.99649 -7.78652,0.97421 -13.68661,6.99045 -21.6223,7.01063 -4.79797,2.03695 -8.10755,-3.07437 -7.24668,-7.53188 0,-6.01448 0,-12.02897 0,-18.04345 2.61737,-5.95872 3.03918,-15.29517 9.09111,-18.932714 6.10494,-3.282945 13.61227,-2.458343 19.37983,0.899133 6.52331,5.327211 14.21531,1.920461 15.6935,-6.269625 4.14394,-8.232257 7.54194,-17.022723 14.63644,-23.253329 1.09179,-2.874574 3.61989,-1.727941 5.19912,-3.443465 z"
     fill="none"
     stroke="#000000"
     stroke-width="2"
     stroke-linecap="round"
     stroke-linejoin="round"
     id="path22" />
</svg>
